<svg width="168" height="45" viewBox="0 0 168 45" fill="none" xmlns="http://www.w3.org/2000/svg">
<path d="M0 0V45H156.328L168 25V0H0Z" fill="#170D16"/>
<path d="M38 39V9.3C38 7.48005 35.9497 6 33.4286 6H10.5714C8.05029 6 6 7.48005 6 9.3V39L22 31.3011L38 39ZM12.8709 15.9924C12.8709 15.0552 13.3829 14.2055 14.208 13.59C15.0331 12.9762 16.1737 12.5951 17.4354 12.5951C17.4354 12.5951 19.712 12.5901 22 14.2929C24.288 12.5901 26.5646 12.5951 26.5646 12.5951C27.8263 12.5951 28.9669 12.9745 29.792 13.59C30.6171 14.2055 31.1291 15.0552 31.1291 15.9924C31.1291 16.9296 30.6171 17.781 29.792 18.3948L22 24.4849L14.208 18.3948C13.3455 17.7504 12.8657 16.8884 12.8709 15.9924Z" fill="#FF003C"/>
<path d="M46.4363 26H45.6803C45.5363 26 45.4643 25.932 45.4643 25.796V19.424C45.4643 19.344 45.4243 19.304 45.3443 19.304H43.8323C43.6883 19.304 43.6163 19.236 43.6163 19.1V18.488C43.6163 18.352 43.6883 18.284 43.8323 18.284H48.2843C48.4283 18.284 48.5003 18.352 48.5003 18.488V19.1C48.5003 19.236 48.4283 19.304 48.2843 19.304H46.7723C46.6843 19.304 46.6403 19.344 46.6403 19.424V25.796C46.6403 25.932 46.5723 26 46.4363 26ZM51.3154 26H50.7754C50.1994 26 49.7554 25.84 49.4434 25.52C49.1394 25.192 48.9874 24.732 48.9874 24.14V20.084C48.9874 19.948 49.0554 19.88 49.1914 19.88H49.9474C50.0834 19.88 50.1514 19.948 50.1514 20.084V24.092C50.1514 24.684 50.4394 24.98 51.0154 24.98H51.5914C52.2474 24.98 52.5754 24.64 52.5754 23.96V20.084C52.5754 19.948 52.6434 19.88 52.7794 19.88H53.5354C53.6794 19.88 53.7514 19.948 53.7514 20.084V25.796C53.7514 25.932 53.6794 26 53.5354 26H52.7794C52.6434 26 52.5754 25.932 52.5754 25.796V25.364H52.5274C52.3354 25.788 51.9314 26 51.3154 26ZM57.0706 26H54.8626C54.7266 26 54.6586 25.932 54.6586 25.796V25.208C54.6586 25.08 54.7266 25.016 54.8626 25.016H56.8786C57.3986 25.016 57.6586 24.836 57.6586 24.476V24.332C57.6586 24.012 57.4706 23.768 57.0946 23.6L55.7866 22.976C55.3786 22.784 55.0826 22.572 54.8986 22.34C54.7146 22.108 54.6226 21.804 54.6226 21.428C54.6226 20.396 55.1946 19.88 56.3386 19.88H58.3306C58.4586 19.88 58.5226 19.948 58.5226 20.084V20.672C58.5226 20.808 58.4586 20.876 58.3306 20.876H56.5786C56.3386 20.876 56.1546 20.92 56.0266 21.008C55.8986 21.088 55.8346 21.196 55.8346 21.332V21.464C55.8346 21.72 56.0386 21.944 56.4466 22.136L57.7666 22.808C58.1826 22.992 58.4666 23.212 58.6186 23.468C58.7786 23.716 58.8586 24.04 58.8586 24.44C58.8586 25.48 58.2626 26 57.0706 26ZM65.9608 25.184V25.808C65.9608 25.936 65.8888 26 65.7448 26H63.9808C63.3888 26 62.9288 25.836 62.6008 25.508C62.2808 25.18 62.1208 24.724 62.1208 24.14V21.74C62.1208 21.148 62.2808 20.692 62.6008 20.372C62.9288 20.044 63.3888 19.88 63.9808 19.88H65.7448C65.8888 19.88 65.9608 19.948 65.9608 20.084V20.708C65.9608 20.836 65.8888 20.9 65.7448 20.9H64.1488C63.5728 20.9 63.2848 21.196 63.2848 21.788V24.092C63.2848 24.684 63.5728 24.98 64.1488 24.98H65.7448C65.8888 24.98 65.9608 25.048 65.9608 25.184ZM68.9521 26H68.4841C67.8921 26 67.4321 25.836 67.1041 25.508C66.7841 25.18 66.6241 24.724 66.6241 24.14V21.74C66.6241 21.148 66.7841 20.692 67.1041 20.372C67.4321 20.044 67.8921 19.88 68.4841 19.88H71.1721C71.3161 19.88 71.3881 19.948 71.3881 20.084V25.796C71.3881 25.932 71.3161 26 71.1721 26H70.4161C70.2801 26 70.2121 25.932 70.2121 25.796V25.364H70.1641C69.9721 25.788 69.5681 26 68.9521 26ZM70.2121 23.96V21.02C70.2121 20.94 70.1681 20.9 70.0801 20.9H68.6521C68.0761 20.9 67.7881 21.196 67.7881 21.788V24.092C67.7881 24.684 68.0761 24.98 68.6521 24.98H69.2281C69.8841 24.98 70.2121 24.64 70.2121 23.96ZM73.4847 26H72.7287C72.5927 26 72.5247 25.932 72.5247 25.796V20.084C72.5247 19.948 72.5927 19.88 72.7287 19.88H73.4847C73.6207 19.88 73.6887 19.948 73.6887 20.084V20.516H73.7367C73.9287 20.092 74.3327 19.88 74.9487 19.88H75.4767C76.0607 19.88 76.5087 20.04 76.8207 20.36C77.1327 20.68 77.2887 21.14 77.2887 21.74V25.796C77.2887 25.932 77.2167 26 77.0727 26H76.3167C76.1807 26 76.1127 25.932 76.1127 25.796V21.788C76.1127 21.196 75.8207 20.9 75.2367 20.9H74.6727C74.0167 20.9 73.6887 21.24 73.6887 21.92V25.796C73.6887 25.932 73.6207 26 73.4847 26ZM82.084 25.184V25.808C82.084 25.936 82.012 26 81.868 26H80.104C79.512 26 79.052 25.836 78.724 25.508C78.404 25.18 78.244 24.724 78.244 24.14V21.74C78.244 21.148 78.404 20.692 78.724 20.372C79.052 20.044 79.512 19.88 80.104 19.88H81.868C82.012 19.88 82.084 19.948 82.084 20.084V20.708C82.084 20.836 82.012 20.9 81.868 20.9H80.272C79.696 20.9 79.408 21.196 79.408 21.788V24.092C79.408 24.684 79.696 24.98 80.272 24.98H81.868C82.012 24.98 82.084 25.048 82.084 25.184ZM82.9272 18.86V17.768C82.9272 17.64 82.9912 17.576 83.1192 17.576H83.8992C84.0272 17.576 84.0912 17.64 84.0912 17.768V18.86C84.0912 18.996 84.0272 19.064 83.8992 19.064H83.1192C82.9912 19.064 82.9272 18.996 82.9272 18.86ZM82.9272 25.796V20.084C82.9272 19.948 82.9912 19.88 83.1192 19.88H83.8872C84.0232 19.88 84.0912 19.948 84.0912 20.084V25.796C84.0912 25.876 84.0752 25.932 84.0432 25.964C84.0192 25.988 83.9712 26 83.8992 26H83.1312C82.9952 26 82.9272 25.932 82.9272 25.796ZM88.104 26H87.048C86.456 26 85.996 25.836 85.668 25.508C85.348 25.18 85.188 24.724 85.188 24.14V21.74C85.188 21.148 85.348 20.692 85.668 20.372C85.996 20.044 86.456 19.88 87.048 19.88H88.104C88.688 19.88 89.144 20.044 89.472 20.372C89.808 20.692 89.976 21.148 89.976 21.74V24.14C89.976 24.724 89.808 25.18 89.472 25.508C89.144 25.836 88.688 26 88.104 26ZM87.216 24.98H87.948C88.524 24.98 88.812 24.688 88.812 24.104V21.776C88.812 21.192 88.524 20.9 87.948 20.9H87.216C86.912 20.9 86.692 20.972 86.556 21.116C86.42 21.252 86.352 21.472 86.352 21.776V24.104C86.352 24.408 86.42 24.632 86.556 24.776C86.692 24.912 86.912 24.98 87.216 24.98ZM91.9549 26H91.1989C91.0629 26 90.9949 25.932 90.9949 25.796V20.084C90.9949 19.948 91.0629 19.88 91.1989 19.88H91.9549C92.0909 19.88 92.1589 19.948 92.1589 20.084V20.516H92.2069C92.3989 20.092 92.8029 19.88 93.4189 19.88H93.9469C94.5309 19.88 94.9789 20.04 95.2909 20.36C95.6029 20.68 95.7589 21.14 95.7589 21.74V25.796C95.7589 25.932 95.6869 26 95.5429 26H94.7869C94.6509 26 94.5829 25.932 94.5829 25.796V21.788C94.5829 21.196 94.2909 20.9 93.7069 20.9H93.1429C92.4869 20.9 92.1589 21.24 92.1589 21.92V25.796C92.1589 25.932 92.0909 26 91.9549 26ZM101.166 26H98.5741C97.9821 26 97.5221 25.836 97.1941 25.508C96.8741 25.18 96.7141 24.724 96.7141 24.14V21.74C96.7141 21.148 96.8741 20.692 97.1941 20.372C97.5221 20.044 97.9821 19.88 98.5741 19.88H99.5581C100.15 19.88 100.61 20.044 100.938 20.372C101.266 20.692 101.43 21.148 101.43 21.74V23.264C101.43 23.408 101.358 23.48 101.214 23.48H97.9981C97.9101 23.48 97.8661 23.52 97.8661 23.6V24.116C97.8661 24.7 98.1581 24.992 98.7421 24.992H101.166C101.31 24.992 101.382 25.064 101.382 25.208V25.808C101.382 25.936 101.31 26 101.166 26ZM97.9981 22.664H100.146C100.226 22.664 100.266 22.624 100.266 22.544V21.776C100.266 21.472 100.198 21.252 100.062 21.116C99.9261 20.972 99.7061 20.9 99.4021 20.9H98.7421C98.4381 20.9 98.2181 20.972 98.0821 21.116C97.9461 21.252 97.8781 21.472 97.8781 21.776V22.544C97.8781 22.624 97.9181 22.664 97.9981 22.664ZM104.576 26H102.368C102.232 26 102.164 25.932 102.164 25.796V25.208C102.164 25.08 102.232 25.016 102.368 25.016H104.384C104.904 25.016 105.164 24.836 105.164 24.476V24.332C105.164 24.012 104.976 23.768 104.6 23.6L103.292 22.976C102.884 22.784 102.588 22.572 102.404 22.34C102.22 22.108 102.128 21.804 102.128 21.428C102.128 20.396 102.7 19.88 103.844 19.88H105.836C105.964 19.88 106.028 19.948 106.028 20.084V20.672C106.028 20.808 105.964 20.876 105.836 20.876H104.084C103.844 20.876 103.66 20.92 103.532 21.008C103.404 21.088 103.34 21.196 103.34 21.332V21.464C103.34 21.72 103.544 21.944 103.952 22.136L105.272 22.808C105.688 22.992 105.972 23.212 106.124 23.468C106.284 23.716 106.364 24.04 106.364 24.44C106.364 25.48 105.768 26 104.576 26ZM111.978 25.7H111.438C110.862 25.7 110.418 25.54 110.106 25.22C109.802 24.892 109.65 24.432 109.65 23.84V21.74C109.65 21.148 109.814 20.692 110.142 20.372C110.47 20.044 110.926 19.88 111.51 19.88H114.198C114.342 19.88 114.414 19.948 114.414 20.084V26.024C114.414 26.608 114.246 27.06 113.91 27.38C113.582 27.708 113.126 27.872 112.542 27.872H110.286C110.15 27.872 110.082 27.808 110.082 27.68V27.056C110.082 26.92 110.15 26.852 110.286 26.852H112.362C112.946 26.852 113.238 26.556 113.238 25.964V25.052H113.19C112.99 25.484 112.586 25.7 111.978 25.7ZM113.238 23.66V21.02C113.238 20.94 113.194 20.9 113.106 20.9H111.678C111.11 20.9 110.826 21.196 110.826 21.788V23.78C110.826 24.372 111.11 24.668 111.678 24.668H112.254C112.91 24.668 113.238 24.332 113.238 23.66ZM117.818 26H117.278C116.702 26 116.258 25.84 115.946 25.52C115.642 25.192 115.49 24.732 115.49 24.14V20.084C115.49 19.948 115.558 19.88 115.694 19.88H116.45C116.586 19.88 116.654 19.948 116.654 20.084V24.092C116.654 24.684 116.942 24.98 117.518 24.98H118.094C118.75 24.98 119.078 24.64 119.078 23.96V20.084C119.078 19.948 119.146 19.88 119.282 19.88H120.038C120.182 19.88 120.254 19.948 120.254 20.084V25.796C120.254 25.932 120.182 26 120.038 26H119.282C119.146 26 119.078 25.932 119.078 25.796V25.364H119.03C118.838 25.788 118.434 26 117.818 26ZM123.598 26H123.13C122.538 26 122.078 25.836 121.75 25.508C121.43 25.18 121.27 24.724 121.27 24.14V21.74C121.27 21.148 121.43 20.692 121.75 20.372C122.078 20.044 122.538 19.88 123.13 19.88H125.818C125.962 19.88 126.034 19.948 126.034 20.084V25.796C126.034 25.932 125.962 26 125.818 26H125.062C124.926 26 124.858 25.932 124.858 25.796V25.364H124.81C124.618 25.788 124.214 26 123.598 26ZM124.858 23.96V21.02C124.858 20.94 124.814 20.9 124.726 20.9H123.298C122.722 20.9 122.434 21.196 122.434 21.788V24.092C122.434 24.684 122.722 24.98 123.298 24.98H123.874C124.53 24.98 124.858 24.64 124.858 23.96ZM128.13 26H127.374C127.238 26 127.17 25.932 127.17 25.796V20.084C127.17 19.948 127.238 19.88 127.374 19.88H128.13C128.266 19.88 128.334 19.948 128.334 20.084V20.54H128.382C128.462 20.34 128.614 20.18 128.838 20.06C129.07 19.94 129.326 19.88 129.606 19.88H130.05C130.186 19.88 130.254 19.948 130.254 20.084V20.708C130.254 20.86 130.186 20.924 130.05 20.9H129.33C128.666 20.9 128.334 21.264 128.334 21.992V25.796C128.334 25.932 128.266 26 128.13 26ZM133.11 26H132.498C131.922 26 131.478 25.84 131.166 25.52C130.862 25.192 130.71 24.732 130.71 24.14V21.74C130.71 21.14 130.862 20.68 131.166 20.36C131.478 20.04 131.922 19.88 132.498 19.88H133.11C133.726 19.88 134.126 20.092 134.31 20.516H134.358V17.768C134.358 17.632 134.426 17.564 134.562 17.564H135.33C135.466 17.564 135.534 17.632 135.534 17.768V25.796C135.534 25.932 135.466 26 135.33 26H134.562C134.426 26 134.358 25.932 134.358 25.796V25.364H134.31C134.126 25.788 133.726 26 133.11 26ZM134.358 23.96V21.92C134.358 21.24 134.03 20.9 133.374 20.9H132.738C132.162 20.9 131.874 21.196 131.874 21.788V24.092C131.874 24.684 132.162 24.98 132.738 24.98H133.374C134.03 24.98 134.358 24.64 134.358 23.96ZM138.889 26H138.421C137.829 26 137.369 25.836 137.041 25.508C136.721 25.18 136.561 24.724 136.561 24.14V21.74C136.561 21.148 136.721 20.692 137.041 20.372C137.369 20.044 137.829 19.88 138.421 19.88H141.109C141.253 19.88 141.325 19.948 141.325 20.084V25.796C141.325 25.932 141.253 26 141.109 26H140.353C140.217 26 140.149 25.932 140.149 25.796V25.364H140.101C139.909 25.788 139.505 26 138.889 26ZM140.149 23.96V21.02C140.149 20.94 140.105 20.9 140.017 20.9H138.589C138.013 20.9 137.725 21.196 137.725 21.788V24.092C137.725 24.684 138.013 24.98 138.589 24.98H139.165C139.821 24.98 140.149 24.64 140.149 23.96ZM144.741 26H144.129C143.553 26 143.109 25.84 142.797 25.52C142.493 25.192 142.341 24.732 142.341 24.14V21.74C142.341 21.14 142.493 20.68 142.797 20.36C143.109 20.04 143.553 19.88 144.129 19.88H144.741C145.357 19.88 145.757 20.092 145.941 20.516H145.989V17.768C145.989 17.632 146.057 17.564 146.193 17.564H146.961C147.097 17.564 147.165 17.632 147.165 17.768V25.796C147.165 25.932 147.097 26 146.961 26H146.193C146.057 26 145.989 25.932 145.989 25.796V25.364H145.941C145.757 25.788 145.357 26 144.741 26ZM145.989 23.96V21.92C145.989 21.24 145.661 20.9 145.005 20.9H144.369C143.793 20.9 143.505 21.196 143.505 21.788V24.092C143.505 24.684 143.793 24.98 144.369 24.98H145.005C145.661 24.98 145.989 24.64 145.989 23.96ZM150.52 26H150.052C149.46 26 149 25.836 148.672 25.508C148.352 25.18 148.192 24.724 148.192 24.14V21.74C148.192 21.148 148.352 20.692 148.672 20.372C149 20.044 149.46 19.88 150.052 19.88H152.74C152.884 19.88 152.956 19.948 152.956 20.084V25.796C152.956 25.932 152.884 26 152.74 26H151.984C151.848 26 151.78 25.932 151.78 25.796V25.364H151.732C151.54 25.788 151.136 26 150.52 26ZM151.78 23.96V21.02C151.78 20.94 151.736 20.9 151.648 20.9H150.22C149.644 20.9 149.356 21.196 149.356 21.788V24.092C149.356 24.684 149.644 24.98 150.22 24.98H150.796C151.452 24.98 151.78 24.64 151.78 23.96ZM156.277 26H154.069C153.933 26 153.865 25.932 153.865 25.796V25.208C153.865 25.08 153.933 25.016 154.069 25.016H156.085C156.605 25.016 156.865 24.836 156.865 24.476V24.332C156.865 24.012 156.677 23.768 156.301 23.6L154.993 22.976C154.585 22.784 154.289 22.572 154.105 22.34C153.921 22.108 153.829 21.804 153.829 21.428C153.829 20.396 154.401 19.88 155.545 19.88H157.537C157.665 19.88 157.729 19.948 157.729 20.084V20.672C157.729 20.808 157.665 20.876 157.537 20.876H155.785C155.545 20.876 155.361 20.92 155.233 21.008C155.105 21.088 155.041 21.196 155.041 21.332V21.464C155.041 21.72 155.245 21.944 155.653 22.136L156.973 22.808C157.389 22.992 157.673 23.212 157.825 23.468C157.985 23.716 158.065 24.04 158.065 24.44C158.065 25.48 157.469 26 156.277 26Z" fill="#00F0FF"/>
</svg>
