<svg width="168" height="45" viewBox="0 0 168 45" fill="none" xmlns="http://www.w3.org/2000/svg">
<path d="M0 0V45H156.328L168 26.4706V0H0Z" fill="#170D16"/>
<path d="M10.188 36.8976C9.5322 36.8976 9 36.3636 9 35.703C9 35.0424 9.5322 34.5084 10.188 34.5084C16.7847 34.5084 22.1519 29.3467 22.1519 23C22.1519 16.6533 16.7847 11.4915 10.188 11.4915C9.5322 11.4915 9 10.9564 9 10.297C9 9.63758 9.5322 9.10242 10.188 9.10242C18.095 9.10242 24.5278 15.3369 24.5278 23C24.5278 30.6631 18.095 36.8976 10.188 36.8976Z" fill="#FF003C"/>
<path d="M35.0483 36.8976C30.2965 36.8976 23.1818 30.8901 23.1818 23C23.1818 15.301 29.1085 9.10242 35.0483 9.10242V11.4915C30.2965 11.4915 25.5577 16.3236 25.5577 23C25.5577 29.404 31.4845 34.5084 35.0483 34.5084V36.8976Z" fill="#FF003C"/>
<path d="M35.9096 8.28538C35.3109 8.02497 35.0483 8.34869 35.0483 9.00571V11.5884C35.0483 12.2454 35.3109 12.5691 35.9096 12.3087L39.3333 10.7713C39.9332 10.5109 39.9902 10.0832 39.3903 9.82279L35.9096 8.28538Z" fill="#FF003C"/>
<path d="M35.5425 13.5928C34.705 13.5928 33.8604 12.9728 33.8604 11.5883V9.00567C33.8604 7.61998 34.705 7 35.5425 7C35.8122 7 36.0937 7.06331 36.3812 7.18874L39.8679 8.72854C40.8883 9.17291 41 9.95535 41 10.2719C41 10.5956 40.8836 11.3972 39.8037 11.8667L36.3943 13.3981C36.0937 13.5295 35.8122 13.5928 35.5425 13.5928ZM36.241 9.73675L36.2387 10.8525L37.492 10.2898L36.241 9.73675Z" fill="#FF003C"/>
<path d="M35.9096 33.6913C35.3109 33.4309 35.0483 33.7559 35.0483 34.4129V36.9943C35.0483 37.6513 35.3109 37.9751 35.9096 37.7158L39.3333 36.1772C39.9332 35.9168 39.9902 35.4904 39.3903 35.2299L35.9096 33.6913Z" fill="#FF003C"/>
<path d="M35.5425 39C34.705 39 33.8604 38.3788 33.8604 36.9943V34.4128C33.8604 33.0283 34.705 32.4072 35.5425 32.4072C35.8122 32.4072 36.0937 32.4705 36.38 32.5947L39.8679 34.1345C40.8883 34.5777 41 35.3613 41 35.6779C41 36.0016 40.8836 36.8044 39.8037 37.2726L36.3943 38.8053C36.0937 38.9367 35.8122 39 35.5425 39ZM36.241 35.1427L36.2387 36.2584L37.492 35.6958L36.241 35.1427Z" fill="#FF003C"/>
<path d="M52.1375 26H51.3815C51.2455 26 51.1775 25.932 51.1775 25.796V18.488C51.1775 18.352 51.2455 18.284 51.3815 18.284H54.1895C54.7735 18.284 55.2295 18.452 55.5575 18.788C55.8935 19.116 56.0615 19.572 56.0615 20.156V21.164C56.0615 22.084 55.6815 22.664 54.9215 22.904V22.952L56.2535 25.76C56.3415 25.92 56.2895 26 56.0975 26H55.3535C55.1615 26 55.0375 25.932 54.9815 25.796L53.6975 23.036H52.4855C52.3895 23.036 52.3415 23.076 52.3415 23.156V25.796C52.3415 25.932 52.2735 26 52.1375 26ZM52.4735 22.076H53.9975C54.5895 22.076 54.8855 21.784 54.8855 21.2V20.192C54.8855 19.6 54.5895 19.304 53.9975 19.304H52.4735C52.3855 19.304 52.3415 19.344 52.3415 19.424V21.956C52.3415 22.036 52.3855 22.076 52.4735 22.076ZM61.5334 26H58.9414C58.3494 26 57.8894 25.836 57.5614 25.508C57.2414 25.18 57.0814 24.724 57.0814 24.14V21.74C57.0814 21.148 57.2414 20.692 57.5614 20.372C57.8894 20.044 58.3494 19.88 58.9414 19.88H59.9254C60.5174 19.88 60.9774 20.044 61.3054 20.372C61.6334 20.692 61.7974 21.148 61.7974 21.74V23.264C61.7974 23.408 61.7254 23.48 61.5814 23.48H58.3654C58.2774 23.48 58.2334 23.52 58.2334 23.6V24.116C58.2334 24.7 58.5254 24.992 59.1094 24.992H61.5334C61.6774 24.992 61.7494 25.064 61.7494 25.208V25.808C61.7494 25.936 61.6774 26 61.5334 26ZM58.3654 22.664H60.5134C60.5934 22.664 60.6334 22.624 60.6334 22.544V21.776C60.6334 21.472 60.5654 21.252 60.4294 21.116C60.2934 20.972 60.0734 20.9 59.7694 20.9H59.1094C58.8054 20.9 58.5854 20.972 58.4494 21.116C58.3134 21.252 58.2454 21.472 58.2454 21.776V22.544C58.2454 22.624 58.2854 22.664 58.3654 22.664ZM63.7194 27.692H62.9634C62.8274 27.692 62.7594 27.624 62.7594 27.488V20.084C62.7594 19.948 62.8274 19.88 62.9634 19.88H63.7194C63.8554 19.88 63.9234 19.948 63.9234 20.084V20.516H63.9714C64.1634 20.092 64.5674 19.88 65.1834 19.88H65.7954C66.3714 19.88 66.8114 20.04 67.1154 20.36C67.4274 20.68 67.5834 21.14 67.5834 21.74V24.14C67.5834 24.732 67.4274 25.192 67.1154 25.52C66.8114 25.84 66.3714 26 65.7954 26H65.1834C64.5674 26 64.1634 25.788 63.9714 25.364H63.9234V27.488C63.9234 27.624 63.8554 27.692 63.7194 27.692ZM64.9074 24.98H65.5434C66.1194 24.98 66.4074 24.684 66.4074 24.092V21.788C66.4074 21.196 66.1194 20.9 65.5434 20.9H64.9074C64.2514 20.9 63.9234 21.24 63.9234 21.92V23.96C63.9234 24.64 64.2514 24.98 64.9074 24.98ZM69.5703 26H68.8143C68.6783 26 68.6103 25.932 68.6103 25.796V20.084C68.6103 19.948 68.6783 19.88 68.8143 19.88H69.5703C69.7063 19.88 69.7743 19.948 69.7743 20.084V20.54H69.8223C69.9023 20.34 70.0543 20.18 70.2783 20.06C70.5103 19.94 70.7663 19.88 71.0463 19.88H71.4903C71.6263 19.88 71.6943 19.948 71.6943 20.084V20.708C71.6943 20.86 71.6263 20.924 71.4903 20.9H70.7703C70.1063 20.9 69.7743 21.264 69.7743 21.992V25.796C69.7743 25.932 69.7063 26 69.5703 26ZM75.0658 26H74.0098C73.4178 26 72.9578 25.836 72.6298 25.508C72.3098 25.18 72.1498 24.724 72.1498 24.14V21.74C72.1498 21.148 72.3098 20.692 72.6298 20.372C72.9578 20.044 73.4178 19.88 74.0098 19.88H75.0658C75.6498 19.88 76.1058 20.044 76.4338 20.372C76.7698 20.692 76.9378 21.148 76.9378 21.74V24.14C76.9378 24.724 76.7698 25.18 76.4338 25.508C76.1058 25.836 75.6498 26 75.0658 26ZM74.1778 24.98H74.9098C75.4858 24.98 75.7738 24.688 75.7738 24.104V21.776C75.7738 21.192 75.4858 20.9 74.9098 20.9H74.1778C73.8738 20.9 73.6538 20.972 73.5178 21.116C73.3818 21.252 73.3138 21.472 73.3138 21.776V24.104C73.3138 24.408 73.3818 24.632 73.5178 24.776C73.6538 24.912 73.8738 24.98 74.1778 24.98ZM80.2367 26H79.6247C79.0487 26 78.6047 25.84 78.2927 25.52C77.9887 25.192 77.8367 24.732 77.8367 24.14V21.74C77.8367 21.14 77.9887 20.68 78.2927 20.36C78.6047 20.04 79.0487 19.88 79.6247 19.88H80.2367C80.8527 19.88 81.2527 20.092 81.4367 20.516H81.4847V17.768C81.4847 17.632 81.5527 17.564 81.6887 17.564H82.4567C82.5927 17.564 82.6607 17.632 82.6607 17.768V25.796C82.6607 25.932 82.5927 26 82.4567 26H81.6887C81.5527 26 81.4847 25.932 81.4847 25.796V25.364H81.4367C81.2527 25.788 80.8527 26 80.2367 26ZM81.4847 23.96V21.92C81.4847 21.24 81.1567 20.9 80.5007 20.9H79.8647C79.2887 20.9 79.0007 21.196 79.0007 21.788V24.092C79.0007 24.684 79.2887 24.98 79.8647 24.98H80.5007C81.1567 24.98 81.4847 24.64 81.4847 23.96ZM86.0756 26H85.5356C84.9596 26 84.5156 25.84 84.2036 25.52C83.8996 25.192 83.7476 24.732 83.7476 24.14V20.084C83.7476 19.948 83.8156 19.88 83.9516 19.88H84.7076C84.8436 19.88 84.9116 19.948 84.9116 20.084V24.092C84.9116 24.684 85.1996 24.98 85.7756 24.98H86.3516C87.0076 24.98 87.3356 24.64 87.3356 23.96V20.084C87.3356 19.948 87.4036 19.88 87.5396 19.88H88.2956C88.4396 19.88 88.5116 19.948 88.5116 20.084V25.796C88.5116 25.932 88.4396 26 88.2956 26H87.5396C87.4036 26 87.3356 25.932 87.3356 25.796V25.364H87.2876C87.0956 25.788 86.6916 26 86.0756 26ZM93.3669 25.184V25.808C93.3669 25.936 93.2949 26 93.1509 26H91.3869C90.7949 26 90.3349 25.836 90.0069 25.508C89.6869 25.18 89.5269 24.724 89.5269 24.14V21.74C89.5269 21.148 89.6869 20.692 90.0069 20.372C90.3349 20.044 90.7949 19.88 91.3869 19.88H93.1509C93.2949 19.88 93.3669 19.948 93.3669 20.084V20.708C93.3669 20.836 93.2949 20.9 93.1509 20.9H91.5549C90.9789 20.9 90.6909 21.196 90.6909 21.788V24.092C90.6909 24.684 90.9789 24.98 91.5549 24.98H93.1509C93.2949 24.98 93.3669 25.048 93.3669 25.184ZM97.8701 25.184V25.808C97.8701 25.936 97.7981 26 97.6541 26H95.8901C95.2981 26 94.8381 25.836 94.5101 25.508C94.1901 25.18 94.0301 24.724 94.0301 24.14V21.74C94.0301 21.148 94.1901 20.692 94.5101 20.372C94.8381 20.044 95.2981 19.88 95.8901 19.88H97.6541C97.7981 19.88 97.8701 19.948 97.8701 20.084V20.708C97.8701 20.836 97.7981 20.9 97.6541 20.9H96.0581C95.4821 20.9 95.1941 21.196 95.1941 21.788V24.092C95.1941 24.684 95.4821 24.98 96.0581 24.98H97.6541C97.7981 24.98 97.8701 25.048 97.8701 25.184ZM98.7134 18.86V17.768C98.7134 17.64 98.7774 17.576 98.9054 17.576H99.6854C99.8134 17.576 99.8774 17.64 99.8774 17.768V18.86C99.8774 18.996 99.8134 19.064 99.6854 19.064H98.9054C98.7774 19.064 98.7134 18.996 98.7134 18.86ZM98.7134 25.796V20.084C98.7134 19.948 98.7774 19.88 98.9054 19.88H99.6734C99.8094 19.88 99.8774 19.948 99.8774 20.084V25.796C99.8774 25.876 99.8614 25.932 99.8294 25.964C99.8054 25.988 99.7574 26 99.6854 26H98.9174C98.7814 26 98.7134 25.932 98.7134 25.796ZM103.89 17.564H104.826C104.898 17.564 104.942 17.584 104.958 17.624C104.982 17.656 104.97 17.704 104.922 17.768L103.914 18.968C103.834 19.064 103.738 19.112 103.626 19.112H103.062C102.926 19.112 102.894 19.044 102.966 18.908L103.578 17.756C103.65 17.628 103.754 17.564 103.89 17.564ZM103.89 26H102.834C102.242 26 101.782 25.836 101.454 25.508C101.134 25.18 100.974 24.724 100.974 24.14V21.74C100.974 21.148 101.134 20.692 101.454 20.372C101.782 20.044 102.242 19.88 102.834 19.88H103.89C104.474 19.88 104.93 20.044 105.258 20.372C105.594 20.692 105.762 21.148 105.762 21.74V24.14C105.762 24.724 105.594 25.18 105.258 25.508C104.93 25.836 104.474 26 103.89 26ZM103.002 24.98H103.734C104.31 24.98 104.598 24.688 104.598 24.104V21.776C104.598 21.192 104.31 20.9 103.734 20.9H103.002C102.698 20.9 102.478 20.972 102.342 21.116C102.206 21.252 102.138 21.472 102.138 21.776V24.104C102.138 24.408 102.206 24.632 102.342 24.776C102.478 24.912 102.698 24.98 103.002 24.98ZM107.741 26H106.985C106.849 26 106.781 25.932 106.781 25.796V20.084C106.781 19.948 106.849 19.88 106.985 19.88H107.741C107.877 19.88 107.945 19.948 107.945 20.084V20.516H107.993C108.185 20.092 108.589 19.88 109.205 19.88H109.733C110.317 19.88 110.765 20.04 111.077 20.36C111.389 20.68 111.545 21.14 111.545 21.74V25.796C111.545 25.932 111.473 26 111.329 26H110.573C110.437 26 110.369 25.932 110.369 25.796V21.788C110.369 21.196 110.077 20.9 109.493 20.9H108.929C108.273 20.9 107.945 21.24 107.945 21.92V25.796C107.945 25.932 107.877 26 107.741 26ZM117.328 26H116.86C116.268 26 115.808 25.836 115.48 25.508C115.16 25.18 115 24.724 115 24.14V21.74C115 21.148 115.16 20.692 115.48 20.372C115.808 20.044 116.268 19.88 116.86 19.88H119.548C119.692 19.88 119.764 19.948 119.764 20.084V25.796C119.764 25.932 119.692 26 119.548 26H118.792C118.656 26 118.588 25.932 118.588 25.796V25.364H118.54C118.348 25.788 117.944 26 117.328 26ZM118.588 23.96V21.02C118.588 20.94 118.544 20.9 118.456 20.9H117.028C116.452 20.9 116.164 21.196 116.164 21.788V24.092C116.164 24.684 116.452 24.98 117.028 24.98H117.604C118.26 24.98 118.588 24.64 118.588 23.96ZM121.92 26H121.164C121.028 26 120.96 25.932 120.96 25.796V17.768C120.96 17.632 121.028 17.564 121.164 17.564H121.92C122.056 17.564 122.124 17.632 122.124 17.768V25.796C122.124 25.932 122.056 26 121.92 26ZM127.673 26H125.081C124.489 26 124.029 25.836 123.701 25.508C123.381 25.18 123.221 24.724 123.221 24.14V21.74C123.221 21.148 123.381 20.692 123.701 20.372C124.029 20.044 124.489 19.88 125.081 19.88H126.065C126.657 19.88 127.117 20.044 127.445 20.372C127.773 20.692 127.937 21.148 127.937 21.74V23.264C127.937 23.408 127.865 23.48 127.721 23.48H124.505C124.417 23.48 124.373 23.52 124.373 23.6V24.116C124.373 24.7 124.665 24.992 125.249 24.992H127.673C127.817 24.992 127.889 25.064 127.889 25.208V25.808C127.889 25.936 127.817 26 127.673 26ZM124.505 22.664H126.653C126.733 22.664 126.773 22.624 126.773 22.544V21.776C126.773 21.472 126.705 21.252 126.569 21.116C126.433 20.972 126.213 20.9 125.909 20.9H125.249C124.945 20.9 124.725 20.972 124.589 21.116C124.453 21.252 124.385 21.472 124.385 21.776V22.544C124.385 22.624 124.425 22.664 124.505 22.664ZM131.107 26H130.639C130.047 26 129.587 25.836 129.259 25.508C128.939 25.18 128.779 24.724 128.779 24.14V21.74C128.779 21.148 128.939 20.692 129.259 20.372C129.587 20.044 130.047 19.88 130.639 19.88H133.327C133.471 19.88 133.543 19.948 133.543 20.084V25.796C133.543 25.932 133.471 26 133.327 26H132.571C132.435 26 132.367 25.932 132.367 25.796V25.364H132.319C132.127 25.788 131.723 26 131.107 26ZM132.367 23.96V21.02C132.367 20.94 132.323 20.9 132.235 20.9H130.807C130.231 20.9 129.943 21.196 129.943 21.788V24.092C129.943 24.684 130.231 24.98 130.807 24.98H131.383C132.039 24.98 132.367 24.64 132.367 23.96ZM134.86 20.9H134.284C134.204 20.9 134.148 20.888 134.116 20.864C134.092 20.832 134.08 20.78 134.08 20.708V20.084C134.08 19.948 134.148 19.88 134.284 19.88H134.86C134.94 19.88 134.98 19.84 134.98 19.76V18.68C134.98 18.544 135.052 18.476 135.196 18.476H135.952C136.088 18.476 136.156 18.544 136.156 18.68V19.76C136.156 19.84 136.2 19.88 136.288 19.88H137.404C137.548 19.88 137.62 19.948 137.62 20.084V20.708C137.62 20.836 137.548 20.9 137.404 20.9H136.288C136.2 20.9 136.156 20.94 136.156 21.02V24.104C136.156 24.688 136.456 24.98 137.056 24.98H137.524C137.668 24.98 137.74 25.048 137.74 25.184V25.808C137.74 25.936 137.668 26 137.524 26H136.876C136.284 26 135.82 25.84 135.484 25.52C135.148 25.2 134.98 24.748 134.98 24.164V21.02C134.98 20.94 134.94 20.9 134.86 20.9ZM141.323 26H140.267C139.675 26 139.215 25.836 138.887 25.508C138.567 25.18 138.407 24.724 138.407 24.14V21.74C138.407 21.148 138.567 20.692 138.887 20.372C139.215 20.044 139.675 19.88 140.267 19.88H141.323C141.907 19.88 142.363 20.044 142.691 20.372C143.027 20.692 143.195 21.148 143.195 21.74V24.14C143.195 24.724 143.027 25.18 142.691 25.508C142.363 25.836 141.907 26 141.323 26ZM140.435 24.98H141.167C141.743 24.98 142.031 24.688 142.031 24.104V21.776C142.031 21.192 141.743 20.9 141.167 20.9H140.435C140.131 20.9 139.911 20.972 139.775 21.116C139.639 21.252 139.571 21.472 139.571 21.776V24.104C139.571 24.408 139.639 24.632 139.775 24.776C139.911 24.912 140.131 24.98 140.435 24.98ZM145.174 26H144.418C144.282 26 144.214 25.932 144.214 25.796V20.084C144.214 19.948 144.282 19.88 144.418 19.88H145.174C145.31 19.88 145.378 19.948 145.378 20.084V20.54H145.426C145.506 20.34 145.658 20.18 145.882 20.06C146.114 19.94 146.37 19.88 146.65 19.88H147.094C147.23 19.88 147.298 19.948 147.298 20.084V20.708C147.298 20.86 147.23 20.924 147.094 20.9H146.374C145.71 20.9 145.378 21.264 145.378 21.992V25.796C145.378 25.932 145.31 26 145.174 26ZM147.933 18.86V17.768C147.933 17.64 147.997 17.576 148.125 17.576H148.905C149.033 17.576 149.097 17.64 149.097 17.768V18.86C149.097 18.996 149.033 19.064 148.905 19.064H148.125C147.997 19.064 147.933 18.996 147.933 18.86ZM147.933 25.796V20.084C147.933 19.948 147.997 19.88 148.125 19.88H148.893C149.029 19.88 149.097 19.948 149.097 20.084V25.796C149.097 25.876 149.081 25.932 149.049 25.964C149.025 25.988 148.977 26 148.905 26H148.137C148.001 26 147.933 25.932 147.933 25.796ZM152.522 26H152.054C151.462 26 151.002 25.836 150.674 25.508C150.354 25.18 150.194 24.724 150.194 24.14V21.74C150.194 21.148 150.354 20.692 150.674 20.372C151.002 20.044 151.462 19.88 152.054 19.88H154.742C154.886 19.88 154.958 19.948 154.958 20.084V25.796C154.958 25.932 154.886 26 154.742 26H153.986C153.85 26 153.782 25.932 153.782 25.796V25.364H153.734C153.542 25.788 153.138 26 152.522 26ZM153.782 23.96V21.02C153.782 20.94 153.738 20.9 153.65 20.9H152.222C151.646 20.9 151.358 21.196 151.358 21.788V24.092C151.358 24.684 151.646 24.98 152.222 24.98H152.798C153.454 24.98 153.782 24.64 153.782 23.96Z" fill="#00F0FF"/>
</svg>
