<svg width="168" height="45" viewBox="0 0 168 45" fill="none" xmlns="http://www.w3.org/2000/svg">
<path d="M0 0V45H156.328L168 26.4706V0H0Z" fill="#170D16"/>
<path d="M6 7H38" stroke="#FF003C" stroke-width="2" stroke-miterlimit="10" stroke-linecap="round"/>
<path d="M6 9.51996H38" stroke="#FF003C" stroke-width="2" stroke-miterlimit="10" stroke-linecap="round"/>
<path d="M35.0909 12.0371H8.90909C7.30182 12.0371 6 13.3778 6 15.033V36.0041C6 37.6593 7.30182 39 8.90909 39H35.0909C36.6982 39 38 37.6593 38 36.0041V15.033C38 13.3778 36.6982 12.0371 35.0909 12.0371ZM27.8182 20.6802C27.8182 20.9019 27.6655 21.0936 27.4545 21.1371L22 22.3699C22 22.3699 22 28.0905 22 30.2775C22 32.5019 21.2625 34.5062 18.7025 34.5062C16.6196 34.5062 15.4545 33.3213 15.4545 31.5103C15.4545 27.1393 20.5455 28.8844 20.5455 27.0165V18.0289L27.2989 16.5399C27.568 16.4845 27.8182 16.6957 27.8182 16.9788V20.6802Z" fill="#FF003C"/>
<path d="M64.9781 28H63.8441C63.6281 28 63.5201 27.898 63.5201 27.694V18.136C63.5201 18.016 63.4601 17.956 63.3401 17.956H61.0721C60.8561 17.956 60.7481 17.854 60.7481 17.65V16.732C60.7481 16.528 60.8561 16.426 61.0721 16.426H67.7501C67.9661 16.426 68.0741 16.528 68.0741 16.732V17.65C68.0741 17.854 67.9661 17.956 67.7501 17.956H65.4821C65.3501 17.956 65.2841 18.016 65.2841 18.136V27.694C65.2841 27.898 65.1821 28 64.9781 28ZM72.8368 28H72.0268C71.1628 28 70.4968 27.76 70.0288 27.28C69.5728 26.788 69.3448 26.098 69.3448 25.21V19.126C69.3448 18.922 69.4468 18.82 69.6508 18.82H70.7848C70.9888 18.82 71.0908 18.922 71.0908 19.126V25.138C71.0908 26.026 71.5228 26.47 72.3868 26.47H73.2508C74.2348 26.47 74.7268 25.96 74.7268 24.94V19.126C74.7268 18.922 74.8288 18.82 75.0328 18.82H76.1668C76.3828 18.82 76.4908 18.922 76.4908 19.126V27.694C76.4908 27.898 76.3828 28 76.1668 28H75.0328C74.8288 28 74.7268 27.898 74.7268 27.694V27.046H74.6548C74.3668 27.682 73.7608 28 72.8368 28ZM85.1467 26.506H87.6667C88.5667 26.506 89.0167 26.074 89.0167 25.21V24.094C89.0167 23.23 88.5427 22.798 87.5947 22.798H85.1467C85.0147 22.798 84.9487 22.858 84.9487 22.978V26.326C84.9487 26.446 85.0147 26.506 85.1467 26.506ZM85.1467 21.358H87.4867C88.3987 21.358 88.8547 20.92 88.8547 20.044V19.216C88.8547 18.352 88.4107 17.92 87.5227 17.92H85.1467C85.0147 17.92 84.9487 17.98 84.9487 18.1V21.178C84.9487 21.298 85.0147 21.358 85.1467 21.358ZM83.2027 27.694V16.732C83.2027 16.528 83.3047 16.426 83.5087 16.426H87.7747C88.6627 16.426 89.3527 16.666 89.8447 17.146C90.3367 17.626 90.5827 18.304 90.5827 19.18V20.062C90.5827 21.106 90.0907 21.778 89.1067 22.078C89.5747 22.138 89.9587 22.342 90.2587 22.69C90.5707 23.038 90.7267 23.506 90.7267 24.094V25.246C90.7267 26.122 90.4807 26.8 89.9887 27.28C89.4967 27.76 88.8127 28 87.9367 28H83.5087C83.3047 28 83.2027 27.898 83.2027 27.694ZM93.0443 17.29V15.652C93.0443 15.46 93.1403 15.364 93.3323 15.364H94.5023C94.6943 15.364 94.7903 15.46 94.7903 15.652V17.29C94.7903 17.494 94.6943 17.596 94.5023 17.596H93.3323C93.1403 17.596 93.0443 17.494 93.0443 17.29ZM93.0443 27.694V19.126C93.0443 18.922 93.1403 18.82 93.3323 18.82H94.4843C94.6883 18.82 94.7903 18.922 94.7903 19.126V27.694C94.7903 27.814 94.7663 27.898 94.7183 27.946C94.6823 27.982 94.6103 28 94.5023 28H93.3503C93.1463 28 93.0443 27.898 93.0443 27.694ZM99.0995 26.47H101.331C102.195 26.47 102.627 26.026 102.627 25.138V21.61C102.627 20.722 102.195 20.278 101.331 20.278H100.377C99.3935 20.278 98.9015 20.782 98.9015 21.79V26.272C98.9015 26.404 98.9675 26.47 99.0995 26.47ZM97.1555 27.694V15.652C97.1555 15.448 97.2575 15.346 97.4615 15.346H98.5955C98.7995 15.346 98.9015 15.448 98.9015 15.652V19.72H98.9735C99.2735 19.072 99.8795 18.748 100.791 18.748H101.583C102.471 18.748 103.161 18.994 103.653 19.486C104.145 19.966 104.391 20.644 104.391 21.52V25.21C104.391 26.086 104.145 26.77 103.653 27.262C103.161 27.754 102.471 28 101.583 28H97.4615C97.2575 28 97.1555 27.898 97.1555 27.694ZM108.002 28H106.868C106.664 28 106.562 27.898 106.562 27.694V15.652C106.562 15.448 106.664 15.346 106.868 15.346H108.002C108.206 15.346 108.308 15.448 108.308 15.652V27.694C108.308 27.898 108.206 28 108.002 28ZM110.763 17.29V15.652C110.763 15.46 110.859 15.364 111.051 15.364H112.221C112.413 15.364 112.509 15.46 112.509 15.652V17.29C112.509 17.494 112.413 17.596 112.221 17.596H111.051C110.859 17.596 110.763 17.494 110.763 17.29ZM110.763 27.694V19.126C110.763 18.922 110.859 18.82 111.051 18.82H112.203C112.407 18.82 112.509 18.922 112.509 19.126V27.694C112.509 27.814 112.485 27.898 112.437 27.946C112.401 27.982 112.329 28 112.221 28H111.069C110.865 28 110.763 27.898 110.763 27.694ZM119.068 28H117.484C116.596 28 115.906 27.754 115.414 27.262C114.934 26.77 114.694 26.086 114.694 25.21V21.61C114.694 20.722 114.934 20.038 115.414 19.558C115.906 19.066 116.596 18.82 117.484 18.82H119.068C119.944 18.82 120.628 19.066 121.12 19.558C121.624 20.038 121.876 20.722 121.876 21.61V25.21C121.876 26.086 121.624 26.77 121.12 27.262C120.628 27.754 119.944 28 119.068 28ZM117.736 26.47H118.834C119.698 26.47 120.13 26.032 120.13 25.156V21.664C120.13 20.788 119.698 20.35 118.834 20.35H117.736C117.28 20.35 116.95 20.458 116.746 20.674C116.542 20.878 116.44 21.208 116.44 21.664V25.156C116.44 25.612 116.542 25.948 116.746 26.164C116.95 26.368 117.28 26.47 117.736 26.47ZM124.215 20.35H123.351C123.231 20.35 123.147 20.332 123.099 20.296C123.063 20.248 123.045 20.17 123.045 20.062V19.126C123.045 18.922 123.147 18.82 123.351 18.82H124.215C124.335 18.82 124.395 18.76 124.395 18.64V17.02C124.395 16.816 124.503 16.714 124.719 16.714H125.853C126.057 16.714 126.159 16.816 126.159 17.02V18.64C126.159 18.76 126.225 18.82 126.357 18.82H128.031C128.247 18.82 128.355 18.922 128.355 19.126V20.062C128.355 20.254 128.247 20.35 128.031 20.35H126.357C126.225 20.35 126.159 20.41 126.159 20.53V25.156C126.159 26.032 126.609 26.47 127.509 26.47H128.211C128.427 26.47 128.535 26.572 128.535 26.776V27.712C128.535 27.904 128.427 28 128.211 28H127.239C126.351 28 125.655 27.76 125.151 27.28C124.647 26.8 124.395 26.122 124.395 25.246V20.53C124.395 20.41 124.335 20.35 124.215 20.35ZM136.753 28H132.865C131.977 28 131.287 27.754 130.795 27.262C130.315 26.77 130.075 26.086 130.075 25.21V21.61C130.075 20.722 130.315 20.038 130.795 19.558C131.287 19.066 131.977 18.82 132.865 18.82H134.341C135.229 18.82 135.919 19.066 136.411 19.558C136.903 20.038 137.149 20.722 137.149 21.61V23.896C137.149 24.112 137.041 24.22 136.825 24.22H132.001C131.869 24.22 131.803 24.28 131.803 24.4V25.174C131.803 26.05 132.241 26.488 133.117 26.488H136.753C136.969 26.488 137.077 26.596 137.077 26.812V27.712C137.077 27.904 136.969 28 136.753 28ZM132.001 22.996H135.223C135.343 22.996 135.403 22.936 135.403 22.816V21.664C135.403 21.208 135.301 20.878 135.097 20.674C134.893 20.458 134.563 20.35 134.107 20.35H133.117C132.661 20.35 132.331 20.458 132.127 20.674C131.923 20.878 131.821 21.208 131.821 21.664V22.816C131.821 22.936 131.881 22.996 132.001 22.996ZM144.712 26.776V27.712C144.712 27.904 144.604 28 144.388 28H141.742C140.854 28 140.164 27.754 139.672 27.262C139.192 26.77 138.952 26.086 138.952 25.21V21.61C138.952 20.722 139.192 20.038 139.672 19.558C140.164 19.066 140.854 18.82 141.742 18.82H144.388C144.604 18.82 144.712 18.922 144.712 19.126V20.062C144.712 20.254 144.604 20.35 144.388 20.35H141.994C141.13 20.35 140.698 20.794 140.698 21.682V25.138C140.698 26.026 141.13 26.47 141.994 26.47H144.388C144.604 26.47 144.712 26.572 144.712 26.776ZM149.739 28H149.037C148.149 28 147.459 27.754 146.967 27.262C146.487 26.77 146.247 26.086 146.247 25.21V21.61C146.247 20.722 146.487 20.038 146.967 19.558C147.459 19.066 148.149 18.82 149.037 18.82H153.069C153.285 18.82 153.393 18.922 153.393 19.126V27.694C153.393 27.898 153.285 28 153.069 28H151.935C151.731 28 151.629 27.898 151.629 27.694V27.046H151.557C151.269 27.682 150.663 28 149.739 28ZM151.629 24.94V20.53C151.629 20.41 151.563 20.35 151.431 20.35H149.289C148.425 20.35 147.993 20.794 147.993 21.682V25.138C147.993 26.026 148.425 26.47 149.289 26.47H150.153C151.137 26.47 151.629 25.96 151.629 24.94Z" fill="#00F0FF"/>
</svg>
