<svg width="168" height="45" viewBox="0 0 168 45" fill="none" xmlns="http://www.w3.org/2000/svg">
<path d="M0 0V45H156.328L168 26.4706V0H0Z" fill="#170D16"/>
<path d="M44.8748 26H44.1188C43.9828 26 43.9148 25.932 43.9148 25.796V18.488C43.9148 18.352 43.9828 18.284 44.1188 18.284H46.9268C47.5108 18.284 47.9668 18.452 48.2948 18.788C48.6308 19.116 48.7988 19.572 48.7988 20.156V21.164C48.7988 22.084 48.4188 22.664 47.6588 22.904V22.952L48.9908 25.76C49.0788 25.92 49.0268 26 48.8348 26H48.0908C47.8988 26 47.7748 25.932 47.7188 25.796L46.4348 23.036H45.2228C45.1268 23.036 45.0788 23.076 45.0788 23.156V25.796C45.0788 25.932 45.0108 26 44.8748 26ZM45.2108 22.076H46.7348C47.3268 22.076 47.6228 21.784 47.6228 21.2V20.192C47.6228 19.6 47.3268 19.304 46.7348 19.304H45.2108C45.1228 19.304 45.0788 19.344 45.0788 19.424V21.956C45.0788 22.036 45.1228 22.076 45.2108 22.076ZM54.2707 26H51.6787C51.0867 26 50.6267 25.836 50.2987 25.508C49.9787 25.18 49.8187 24.724 49.8187 24.14V21.74C49.8187 21.148 49.9787 20.692 50.2987 20.372C50.6267 20.044 51.0867 19.88 51.6787 19.88H52.6627C53.2547 19.88 53.7147 20.044 54.0427 20.372C54.3707 20.692 54.5347 21.148 54.5347 21.74V23.264C54.5347 23.408 54.4627 23.48 54.3187 23.48H51.1027C51.0147 23.48 50.9707 23.52 50.9707 23.6V24.116C50.9707 24.7 51.2627 24.992 51.8467 24.992H54.2707C54.4147 24.992 54.4867 25.064 54.4867 25.208V25.808C54.4867 25.936 54.4147 26 54.2707 26ZM51.1027 22.664H53.2507C53.3307 22.664 53.3707 22.624 53.3707 22.544V21.776C53.3707 21.472 53.3027 21.252 53.1667 21.116C53.0307 20.972 52.8107 20.9 52.5067 20.9H51.8467C51.5427 20.9 51.3227 20.972 51.1867 21.116C51.0507 21.252 50.9827 21.472 50.9827 21.776V22.544C50.9827 22.624 51.0227 22.664 51.1027 22.664ZM56.4567 27.692H55.7007C55.5647 27.692 55.4967 27.624 55.4967 27.488V20.084C55.4967 19.948 55.5647 19.88 55.7007 19.88H56.4567C56.5927 19.88 56.6607 19.948 56.6607 20.084V20.516H56.7087C56.9007 20.092 57.3047 19.88 57.9207 19.88H58.5327C59.1087 19.88 59.5487 20.04 59.8527 20.36C60.1647 20.68 60.3207 21.14 60.3207 21.74V24.14C60.3207 24.732 60.1647 25.192 59.8527 25.52C59.5487 25.84 59.1087 26 58.5327 26H57.9207C57.3047 26 56.9007 25.788 56.7087 25.364H56.6607V27.488C56.6607 27.624 56.5927 27.692 56.4567 27.692ZM57.6447 24.98H58.2807C58.8567 24.98 59.1447 24.684 59.1447 24.092V21.788C59.1447 21.196 58.8567 20.9 58.2807 20.9H57.6447C56.9887 20.9 56.6607 21.24 56.6607 21.92V23.96C56.6607 24.64 56.9887 24.98 57.6447 24.98ZM62.3076 26H61.5516C61.4156 26 61.3476 25.932 61.3476 25.796V20.084C61.3476 19.948 61.4156 19.88 61.5516 19.88H62.3076C62.4436 19.88 62.5116 19.948 62.5116 20.084V20.54H62.5596C62.6396 20.34 62.7916 20.18 63.0156 20.06C63.2476 19.94 63.5036 19.88 63.7836 19.88H64.2276C64.3636 19.88 64.4316 19.948 64.4316 20.084V20.708C64.4316 20.86 64.3636 20.924 64.2276 20.9H63.5076C62.8436 20.9 62.5116 21.264 62.5116 21.992V25.796C62.5116 25.932 62.4436 26 62.3076 26ZM67.8032 26H66.7472C66.1552 26 65.6952 25.836 65.3672 25.508C65.0472 25.18 64.8872 24.724 64.8872 24.14V21.74C64.8872 21.148 65.0472 20.692 65.3672 20.372C65.6952 20.044 66.1552 19.88 66.7472 19.88H67.8032C68.3872 19.88 68.8432 20.044 69.1712 20.372C69.5072 20.692 69.6752 21.148 69.6752 21.74V24.14C69.6752 24.724 69.5072 25.18 69.1712 25.508C68.8432 25.836 68.3872 26 67.8032 26ZM66.9152 24.98H67.6472C68.2232 24.98 68.5112 24.688 68.5112 24.104V21.776C68.5112 21.192 68.2232 20.9 67.6472 20.9H66.9152C66.6112 20.9 66.3912 20.972 66.2552 21.116C66.1192 21.252 66.0512 21.472 66.0512 21.776V24.104C66.0512 24.408 66.1192 24.632 66.2552 24.776C66.3912 24.912 66.6112 24.98 66.9152 24.98ZM72.974 26H72.362C71.786 26 71.342 25.84 71.03 25.52C70.726 25.192 70.574 24.732 70.574 24.14V21.74C70.574 21.14 70.726 20.68 71.03 20.36C71.342 20.04 71.786 19.88 72.362 19.88H72.974C73.59 19.88 73.99 20.092 74.174 20.516H74.222V17.768C74.222 17.632 74.29 17.564 74.426 17.564H75.194C75.33 17.564 75.398 17.632 75.398 17.768V25.796C75.398 25.932 75.33 26 75.194 26H74.426C74.29 26 74.222 25.932 74.222 25.796V25.364H74.174C73.99 25.788 73.59 26 72.974 26ZM74.222 23.96V21.92C74.222 21.24 73.894 20.9 73.238 20.9H72.602C72.026 20.9 71.738 21.196 71.738 21.788V24.092C71.738 24.684 72.026 24.98 72.602 24.98H73.238C73.894 24.98 74.222 24.64 74.222 23.96ZM78.813 26H78.273C77.697 26 77.253 25.84 76.941 25.52C76.637 25.192 76.485 24.732 76.485 24.14V20.084C76.485 19.948 76.553 19.88 76.689 19.88H77.445C77.581 19.88 77.649 19.948 77.649 20.084V24.092C77.649 24.684 77.937 24.98 78.513 24.98H79.089C79.745 24.98 80.073 24.64 80.073 23.96V20.084C80.073 19.948 80.141 19.88 80.277 19.88H81.033C81.177 19.88 81.249 19.948 81.249 20.084V25.796C81.249 25.932 81.177 26 81.033 26H80.277C80.141 26 80.073 25.932 80.073 25.796V25.364H80.025C79.833 25.788 79.429 26 78.813 26ZM86.1042 25.184V25.808C86.1042 25.936 86.0322 26 85.8882 26H84.1242C83.5322 26 83.0722 25.836 82.7442 25.508C82.4242 25.18 82.2642 24.724 82.2642 24.14V21.74C82.2642 21.148 82.4242 20.692 82.7442 20.372C83.0722 20.044 83.5322 19.88 84.1242 19.88H85.8882C86.0322 19.88 86.1042 19.948 86.1042 20.084V20.708C86.1042 20.836 86.0322 20.9 85.8882 20.9H84.2922C83.7162 20.9 83.4282 21.196 83.4282 21.788V24.092C83.4282 24.684 83.7162 24.98 84.2922 24.98H85.8882C86.0322 24.98 86.1042 25.048 86.1042 25.184ZM86.9475 18.86V17.768C86.9475 17.64 87.0115 17.576 87.1395 17.576H87.9195C88.0475 17.576 88.1115 17.64 88.1115 17.768V18.86C88.1115 18.996 88.0475 19.064 87.9195 19.064H87.1395C87.0115 19.064 86.9475 18.996 86.9475 18.86ZM86.9475 25.796V20.084C86.9475 19.948 87.0115 19.88 87.1395 19.88H87.9075C88.0435 19.88 88.1115 19.948 88.1115 20.084V25.796C88.1115 25.876 88.0955 25.932 88.0635 25.964C88.0395 25.988 87.9915 26 87.9195 26H87.1515C87.0155 26 86.9475 25.932 86.9475 25.796ZM90.2883 26H89.5323C89.3963 26 89.3283 25.932 89.3283 25.796V20.084C89.3283 19.948 89.3963 19.88 89.5323 19.88H90.2883C90.4243 19.88 90.4923 19.948 90.4923 20.084V20.54H90.5403C90.6203 20.34 90.7723 20.18 90.9963 20.06C91.2283 19.94 91.4843 19.88 91.7643 19.88H92.2083C92.3443 19.88 92.4123 19.948 92.4123 20.084V20.708C92.4123 20.86 92.3443 20.924 92.2083 20.9H91.4883C90.8243 20.9 90.4923 21.264 90.4923 21.992V25.796C90.4923 25.932 90.4243 26 90.2883 26ZM98.2832 26H97.2272C96.6352 26 96.1752 25.836 95.8472 25.508C95.5272 25.18 95.3672 24.724 95.3672 24.14V21.74C95.3672 21.148 95.5272 20.692 95.8472 20.372C96.1752 20.044 96.6352 19.88 97.2272 19.88H98.2832C98.8672 19.88 99.3232 20.044 99.6512 20.372C99.9872 20.692 100.155 21.148 100.155 21.74V24.14C100.155 24.724 99.9872 25.18 99.6512 25.508C99.3232 25.836 98.8672 26 98.2832 26ZM97.3952 24.98H98.1272C98.7032 24.98 98.9912 24.688 98.9912 24.104V21.776C98.9912 21.192 98.7032 20.9 98.1272 20.9H97.3952C97.0912 20.9 96.8712 20.972 96.7352 21.116C96.5992 21.252 96.5312 21.472 96.5312 21.776V24.104C96.5312 24.408 96.5992 24.632 96.7352 24.776C96.8712 24.912 97.0912 24.98 97.3952 24.98ZM101.354 20.9H100.778C100.698 20.9 100.642 20.888 100.61 20.864C100.586 20.832 100.574 20.78 100.574 20.708V20.084C100.574 19.948 100.642 19.88 100.778 19.88H101.354C101.434 19.88 101.474 19.84 101.474 19.76V18.68C101.474 18.544 101.546 18.476 101.69 18.476H102.446C102.582 18.476 102.65 18.544 102.65 18.68V19.76C102.65 19.84 102.694 19.88 102.782 19.88H103.898C104.042 19.88 104.114 19.948 104.114 20.084V20.708C104.114 20.836 104.042 20.9 103.898 20.9H102.782C102.694 20.9 102.65 20.94 102.65 21.02V24.104C102.65 24.688 102.95 24.98 103.55 24.98H104.018C104.162 24.98 104.234 25.048 104.234 25.184V25.808C104.234 25.936 104.162 26 104.018 26H103.37C102.778 26 102.314 25.84 101.978 25.52C101.642 25.2 101.474 24.748 101.474 24.164V21.02C101.474 20.94 101.434 20.9 101.354 20.9ZM105.981 26H105.225C105.089 26 105.021 25.932 105.021 25.796V20.084C105.021 19.948 105.089 19.88 105.225 19.88H105.981C106.117 19.88 106.185 19.948 106.185 20.084V20.54H106.233C106.313 20.34 106.465 20.18 106.689 20.06C106.921 19.94 107.177 19.88 107.457 19.88H107.901C108.037 19.88 108.105 19.948 108.105 20.084V20.708C108.105 20.86 108.037 20.924 107.901 20.9H107.181C106.517 20.9 106.185 21.264 106.185 21.992V25.796C106.185 25.932 106.117 26 105.981 26ZM110.889 26H110.421C109.829 26 109.369 25.836 109.041 25.508C108.721 25.18 108.561 24.724 108.561 24.14V21.74C108.561 21.148 108.721 20.692 109.041 20.372C109.369 20.044 109.829 19.88 110.421 19.88H113.109C113.253 19.88 113.325 19.948 113.325 20.084V25.796C113.325 25.932 113.253 26 113.109 26H112.353C112.217 26 112.149 25.932 112.149 25.796V25.364H112.101C111.909 25.788 111.505 26 110.889 26ZM112.149 23.96V21.02C112.149 20.94 112.105 20.9 112.017 20.9H110.589C110.013 20.9 109.725 21.196 109.725 21.788V24.092C109.725 24.684 110.013 24.98 110.589 24.98H111.165C111.821 24.98 112.149 24.64 112.149 23.96ZM116.577 19.88H117.381C117.509 19.88 117.585 19.948 117.609 20.084L118.857 24.908H118.941L120.165 20.084C120.197 19.948 120.281 19.88 120.417 19.88H121.209C121.353 19.88 121.401 19.948 121.353 20.084L119.733 25.784C119.701 25.928 119.613 26 119.469 26H118.317C118.173 26 118.085 25.928 118.053 25.784L116.433 20.084C116.401 19.948 116.449 19.88 116.577 19.88ZM126.312 26H123.72C123.128 26 122.668 25.836 122.34 25.508C122.02 25.18 121.86 24.724 121.86 24.14V21.74C121.86 21.148 122.02 20.692 122.34 20.372C122.668 20.044 123.128 19.88 123.72 19.88H124.704C125.296 19.88 125.756 20.044 126.084 20.372C126.412 20.692 126.576 21.148 126.576 21.74V23.264C126.576 23.408 126.504 23.48 126.36 23.48H123.144C123.056 23.48 123.012 23.52 123.012 23.6V24.116C123.012 24.7 123.304 24.992 123.888 24.992H126.312C126.456 24.992 126.528 25.064 126.528 25.208V25.808C126.528 25.936 126.456 26 126.312 26ZM123.144 22.664H125.292C125.372 22.664 125.412 22.624 125.412 22.544V21.776C125.412 21.472 125.344 21.252 125.208 21.116C125.072 20.972 124.852 20.9 124.548 20.9H123.888C123.584 20.9 123.364 20.972 123.228 21.116C123.092 21.252 123.024 21.472 123.024 21.776V22.544C123.024 22.624 123.064 22.664 123.144 22.664ZM127.165 25.796V25.484C127.165 25.284 127.221 25.112 127.333 24.968L130.105 20.948V20.9H127.477C127.333 20.9 127.261 20.828 127.261 20.684V20.084C127.261 19.948 127.333 19.88 127.477 19.88H131.269C131.405 19.88 131.473 19.948 131.473 20.084V20.636C131.473 20.828 131.425 20.98 131.329 21.092L128.701 24.932V24.98H131.377C131.521 24.98 131.593 25.052 131.593 25.196V25.796C131.593 25.932 131.521 26 131.377 26H127.381C127.237 26 127.165 25.932 127.165 25.796Z" fill="#00F0FF"/>
<path d="M32.5 34H31C30.447 34 30 33.552 30 33C30 32.448 30.447 32 31 32H32.5C32.672 32 33 31.61 33 31V14C33 13.449 32.552 13 32 13H12C11.448 13 11 13.449 11 14V31C11 31.551 11.448 32 12 32H21C21.553 32 22 32.448 22 33C22 33.552 21.553 34 21 34H12C10.346 34 9 32.654 9 31V14C9 12.346 10.346 11 12 11H32C33.654 11 35 12.346 35 14V31C35 32.654 33.879 34 32.5 34Z" fill="#FF003C"/>
<path d="M27.124 30.7319C27.605 30.4669 28 30.6999 28 31.2499V34.7499C28 35.2999 27.605 35.5329 27.124 35.2679L23.876 33.4819C23.395 33.2169 23.395 32.7829 23.876 32.5179L27.124 30.7319Z" fill="#FF003C"/>
<path d="M27.502 36.3769C27.212 36.3769 26.923 36.2979 26.642 36.1439L23.395 34.3579C22.835 34.0499 22.515 33.5549 22.515 32.9999C22.515 32.4449 22.835 31.9499 23.394 31.6419L26.643 29.8549C26.923 29.7009 27.212 29.6219 27.502 29.6219C28.37 29.6219 29 30.3069 29 31.2489V34.7489C29 35.6929 28.37 36.3769 27.502 36.3769ZM25.075 32.9999L27 34.0589V31.9419L25.075 32.9999Z" fill="#FF003C"/>
</svg>
