<svg width="34" height="35" viewBox="0 0 34 35" fill="none" xmlns="http://www.w3.org/2000/svg">
<path d="M12.5856 0.0421829L0 10.1244V34.0884H34V10.1244L21.4144 0.0421829H12.5856ZM19.0185 13.4511H27.8333V15.0645H19.0185V13.4511ZM6.1852 13.4511H15V15.0645H6.1852V13.4511ZM19.0093 15.8989H27.8241V17.5122H19.0093V15.8989ZM6.17594 15.8989H14.9908V17.5122H6.17594V15.8989ZM19.0093 18.3467H27.8241V19.96H19.0093V18.3467ZM6.17594 18.3467H14.9908V19.96H6.17594V18.3467ZM19.0093 20.7944H27.8241V22.4078H19.0093V20.7944ZM6.17594 20.7944H14.9908V22.4078H6.17594V20.7944Z" fill="#FF0042"/>
</svg>
