<svg width="36" height="39" viewBox="0 0 36 39" fill="none" xmlns="http://www.w3.org/2000/svg">
<path d="M1 1.13757H35" stroke="#FF003C" stroke-width="2" stroke-miterlimit="10" stroke-linecap="round"/>
<path d="M1 4.06158H35" stroke="#FF003C" stroke-width="2" stroke-miterlimit="10" stroke-linecap="round"/>
<path d="M31.9091 6.9823H4.09091C2.38318 6.9823 1 8.5379 1 10.4585V34.7919C1 36.7125 2.38318 38.2681 4.09091 38.2681H31.9091C33.6168 38.2681 35 36.7125 35 34.7919V10.4585C35 8.5379 33.6168 6.9823 31.9091 6.9823ZM24.1818 17.0111C24.1818 17.2684 24.0195 17.4908 23.7955 17.5412L18 18.9717C18 18.9717 18 25.6095 18 28.1471C18 30.7282 17.2165 33.0538 14.4965 33.0538C12.2834 33.0538 11.0455 31.6789 11.0455 29.5776C11.0455 24.5058 16.4545 26.5307 16.4545 24.3633V13.9347L23.6301 12.207C23.916 12.1427 24.1818 12.3878 24.1818 12.7163V17.0111Z" fill="#FF003C"/>
</svg>
