<svg width="30" height="30" viewBox="0 0 30 30" fill="none" xmlns="http://www.w3.org/2000/svg">
<path d="M28.8 27.041L24.93 23.8158C27.1685 21.2316 28.4 17.9139 28.395 14.4811C28.4011 11.2161 27.3027 8.04694 25.2814 5.49801C23.2602 2.94908 20.4373 1.17322 17.2801 0.46433C14.1228 -0.244556 10.8204 0.156035 7.91936 1.5998C5.01834 3.04357 2.69265 5.44396 1.3272 8.4037C-0.0382627 11.3634 -0.361631 14.7051 0.410608 17.8756C1.18285 21.0462 3.0044 23.8555 5.57379 25.8387C8.14318 27.8218 11.3064 28.86 14.5399 28.7812C17.7734 28.7025 20.8833 27.5116 23.355 25.4057L27.405 28.8126C27.5968 28.9861 27.8449 29.083 28.1025 29.0851C28.2632 29.0869 28.422 29.0508 28.5665 28.9799C28.711 28.9089 28.8372 28.805 28.935 28.6763C29.042 28.5646 29.1242 28.4311 29.1759 28.2847C29.2277 28.1384 29.2478 27.9826 29.2351 27.8277C29.2223 27.6729 29.1768 27.5225 29.1018 27.3869C29.0268 27.2512 28.9239 27.1332 28.8 27.041ZM2.24999 14.4129C2.24999 12.0232 2.95201 9.68705 4.26729 7.70002C5.58258 5.71299 7.45203 4.16429 9.63927 3.24976C11.8265 2.33523 14.2333 2.09594 16.5552 2.56217C18.8772 3.02839 21.01 4.17918 22.6841 5.86901C24.3581 7.55884 25.4981 9.71182 25.96 12.0557C26.4219 14.3995 26.1848 16.829 25.2788 19.0369C24.3728 21.2448 22.8386 23.1319 20.8702 24.4596C18.9017 25.7872 16.5874 26.4959 14.22 26.4959C11.0453 26.4959 8.00073 25.2229 5.75592 22.9569C3.51111 20.6909 2.24999 17.6175 2.24999 14.4129Z" fill="#FF0042"/>
</svg>
