<svg width="34" height="37" viewBox="0 0 34 37" fill="none" xmlns="http://www.w3.org/2000/svg">
<path d="M34 36.351V3.90696C34 1.91886 31.8216 0.302063 29.1429 0.302063H4.85714C2.17843 0.302063 0 1.91886 0 3.90696V36.351L17 27.9408L34 36.351ZM7.30028 11.2177C7.30028 10.1939 7.84429 9.26564 8.721 8.59333C9.59771 7.92282 10.8096 7.50645 12.1501 7.50645C12.1501 7.50645 14.569 7.50104 17 9.36117C19.431 7.50104 21.8499 7.50645 21.8499 7.50645C23.1904 7.50645 24.4023 7.92101 25.279 8.59333C26.1557 9.26564 26.6997 10.1939 26.6997 11.2177C26.6997 12.2415 26.1557 13.1715 25.279 13.8421L17 20.4949L8.721 13.8421C7.80461 13.1382 7.29483 12.1965 7.30028 11.2177Z" fill="#FF003C"/>
</svg>
